<?xml version="1.0" encoding="UTF-8" standalone="no"?>
<!-- Creator: CorelDRAW -->

<svg
   xml:space="preserve"
   width="2048px"
   height="2048px"
   style="shape-rendering:geometricPrecision; text-rendering:geometricPrecision; image-rendering:optimizeQuality; fill-rule:evenodd; clip-rule:evenodd"
   viewBox="0 0 2048 2048"
   version="1.1"
   id="svg3"
   sodipodi:docname="catalogo.svg"
   inkscape:version="1.4.2 (f4327f4, 2025-05-13)"
   xmlns:inkscape="http://www.inkscape.org/namespaces/inkscape"
   xmlns:sodipodi="http://sodipodi.sourceforge.net/DTD/sodipodi-0.dtd"
   xmlns:xlink="http://www.w3.org/1999/xlink"
   xmlns="http://www.w3.org/2000/svg"
   xmlns:svg="http://www.w3.org/2000/svg"><sodipodi:namedview
   id="namedview3"
   pagecolor="#ffffff"
   bordercolor="#000000"
   borderopacity="0.25"
   inkscape:showpageshadow="2"
   inkscape:pageopacity="0.0"
   inkscape:pagecheckerboard="0"
   inkscape:deskcolor="#d1d1d1"
   inkscape:zoom="0.20239258"
   inkscape:cx="202.5766"
   inkscape:cy="1064.7624"
   inkscape:window-width="1920"
   inkscape:window-height="1009"
   inkscape:window-x="-8"
   inkscape:window-y="-8"
   inkscape:window-maximized="1"
   inkscape:current-layer="Layer_x0020_1" />
 <defs
   id="defs1">
  <style
   type="text/css"
   id="style1">
   <![CDATA[
    .fil2 {fill:none}
    .fil1 {fill:#424242}
    .fil0 {fill:#64B5F6;fill-rule:nonzero}
   ]]>
  </style>
 <linearGradient
   id="linearGradient46"
   inkscape:collect="always"><stop
     style="stop-color:#64ff00;stop-opacity:1;"
     offset="0.20222224"
     id="stop47" /><stop
     style="stop-color:#ff2100;stop-opacity:1;"
     offset="0.20222224"
     id="stop51" /><stop
     style="stop-color:#ff2100;stop-opacity:1;"
     offset="0.76111114"
     id="stop49" /><stop
     style="stop-color:#00aaff;stop-opacity:1;"
     offset="0.76111114"
     id="stop52" /></linearGradient><linearGradient
   id="linearGradient43"
   inkscape:collect="always"><stop
     style="stop-color:#ffffff;stop-opacity:1;"
     offset="0.18250002"
     id="stop43" /><stop
     style="stop-color:#000000;stop-opacity:0;"
     offset="0.18250002"
     id="stop46" /><stop
     style="stop-color:#000000;stop-opacity:0;"
     offset="0.70902783"
     id="stop54" /><stop
     style="stop-color:#ffffff;stop-opacity:1;"
     offset="0.70902783"
     id="stop44" /></linearGradient><filter
   inkscape:label="Brilliance"
   inkscape:menu="Blurs"
   inkscape:menu-tooltip="Edges are partly feathered out"
   style="color-interpolation-filters:sRGB;"
   id="filter55"
   x="-0.02054607"
   y="-0.026235618"
   width="1.0410921"
   height="1.0524712"><feMorphology
     radius="4"
     in="SourceGraphic"
     result="result0"
     id="feMorphology55" /><feGaussianBlur
     in="result0"
     stdDeviation="8"
     result="result91"
     id="feGaussianBlur55" /><feComposite
     operator="in"
     in="SourceGraphic"
     in2="result91"
     id="feComposite55"
     result="fbSourceGraphic" /><feColorMatrix
     result="fbSourceGraphicAlpha"
     in="fbSourceGraphic"
     values="0 0 0 -1 0 0 0 0 -1 0 0 0 0 -1 0 0 0 0 1 0"
     id="feColorMatrix69" /><feColorMatrix
     id="feColorMatrix70"
     values="2 -5.69659 -5.69659 0 0 -5.69659 2 -5.69659 0 0 -5.69659 -5.69659 2 0 0 0 0 0 1 0 "
     in="fbSourceGraphic"
     result="fbSourceGraphic" /><feColorMatrix
     result="fbSourceGraphicAlpha"
     in="fbSourceGraphic"
     values="0 0 0 -1 0 0 0 0 -1 0 0 0 0 -1 0 0 0 0 1 0"
     id="feColorMatrix71" /><feColorMatrix
     id="feColorMatrix72"
     values="2 -7.02786 -7.02786 0 0 -7.02786 2 -7.02786 0 0 -7.02786 -7.02786 2 0 0 0 0 0 1 0 "
     in="fbSourceGraphic"
     result="fbSourceGraphic" /><feColorMatrix
     result="fbSourceGraphicAlpha"
     in="fbSourceGraphic"
     values="0 0 0 -1 0 0 0 0 -1 0 0 0 0 -1 0 0 0 0 1 0"
     id="feColorMatrix73" /><feColorMatrix
     id="feColorMatrix74"
     values="2 -5.60372 -5.60372 0 0 -5.60372 2 -5.60372 0 0 -5.60372 -5.60372 2 0 0 0 0 0 1 0 "
     in="fbSourceGraphic"
     result="fbSourceGraphic" /><feColorMatrix
     result="fbSourceGraphicAlpha"
     in="fbSourceGraphic"
     values="0 0 0 -1 0 0 0 0 -1 0 0 0 0 -1 0 0 0 0 1 0"
     id="feColorMatrix75" /><feColorMatrix
     id="feColorMatrix76"
     values="2 -5.60372 -5.60372 0 8.80126 -5.60372 2 -5.60372 0 8.80126 -5.60372 -5.60372 2 0 8.80126 0 0 0 1 0 "
     in="fbSourceGraphic"
     result="fbSourceGraphic" /><feColorMatrix
     result="fbSourceGraphicAlpha"
     in="fbSourceGraphic"
     values="0 0 0 -1 0 0 0 0 -1 0 0 0 0 -1 0 0 0 0 1 0"
     id="feColorMatrix77" /><feColorMatrix
     id="feColorMatrix78"
     values="6.85139 -5.60372 -5.60372 0 8.80126 -5.60372 6.85139 -5.60372 0 8.80126 -5.60372 -5.60372 6.85139 0 8.80126 0 0 0 1 0 "
     in="fbSourceGraphic" /></filter><filter
   inkscape:label="Evanescent"
   inkscape:menu="Blurs"
   inkscape:menu-tooltip="Blur the contents of objects, preserving the outline and adding progressive transparency at edges"
   style="color-interpolation-filters:sRGB;"
   id="filter56"
   x="-0.36164288"
   y="-0.31581699"
   width="1.7232858"
   height="1.631634"><feGaussianBlur
     result="result6"
     stdDeviation="3"
     in="SourceGraphic"
     id="feGaussianBlur56" /><feColorMatrix
     values="1 0 0 0 0 0 1 0 0 0 0 0 1 0 0 0 0 0 1 0 "
     result="result7"
     in="SourceGraphic"
     id="feColorMatrix56" /><feComposite
     operator="in"
     in="result6"
     in2="result7"
     id="feComposite56" /></filter><filter
   inkscape:label="Evanescent"
   inkscape:menu="Blurs"
   inkscape:menu-tooltip="Blur the contents of objects, preserving the outline and adding progressive transparency at edges"
   style="color-interpolation-filters:sRGB;"
   id="filter57"
   x="-0.4517533"
   y="-0.47006754"
   width="1.9035066"
   height="1.9401351"><feGaussianBlur
     result="result6"
     stdDeviation="3"
     in="SourceGraphic"
     id="feGaussianBlur57" /><feColorMatrix
     values="1 0 0 0 0 0 1 0 0 0 0 0 1 0 0 0 0 0 1 0 "
     result="result7"
     in="SourceGraphic"
     id="feColorMatrix57" /><feComposite
     operator="in"
     in="result6"
     in2="result7"
     id="feComposite57" /></filter><filter
   inkscape:label="Evanescent"
   inkscape:menu="Blurs"
   inkscape:menu-tooltip="Blur the contents of objects, preserving the outline and adding progressive transparency at edges"
   style="color-interpolation-filters:sRGB;"
   id="filter58"
   x="-0.51426"
   y="-0.45758523"
   width="2.02852"
   height="1.9151705"><feGaussianBlur
     result="result6"
     stdDeviation="3"
     in="SourceGraphic"
     id="feGaussianBlur58" /><feColorMatrix
     values="1 0 0 0 0 0 1 0 0 0 0 0 1 0 0 0 0 0 1 0 "
     result="result7"
     in="SourceGraphic"
     id="feColorMatrix58" /><feComposite
     operator="in"
     in="result6"
     in2="result7"
     id="feComposite58" /></filter><filter
   inkscape:label="Evanescent"
   inkscape:menu="Blurs"
   inkscape:menu-tooltip="Blur the contents of objects, preserving the outline and adding progressive transparency at edges"
   style="color-interpolation-filters:sRGB;"
   id="filter59"
   x="-0.83795795"
   y="-0.67489161"
   width="2.6759159"
   height="2.3497832"><feGaussianBlur
     result="result6"
     stdDeviation="3"
     in="SourceGraphic"
     id="feGaussianBlur59" /><feColorMatrix
     values="1 0 0 0 0 0 1 0 0 0 0 0 1 0 0 0 0 0 1 0 "
     result="result7"
     in="SourceGraphic"
     id="feColorMatrix59" /><feComposite
     operator="in"
     in="result6"
     in2="result7"
     id="feComposite59" /></filter><filter
   inkscape:label="Evanescent"
   inkscape:menu="Blurs"
   inkscape:menu-tooltip="Blur the contents of objects, preserving the outline and adding progressive transparency at edges"
   style="color-interpolation-filters:sRGB;"
   id="filter60"
   x="-0.50654316"
   y="-0.48543977"
   width="2.0130863"
   height="1.9708795"><feGaussianBlur
     result="result6"
     stdDeviation="3"
     in="SourceGraphic"
     id="feGaussianBlur60" /><feColorMatrix
     values="1 0 0 0 0 0 1 0 0 0 0 0 1 0 0 0 0 0 1 0 "
     result="result7"
     in="SourceGraphic"
     id="feColorMatrix60" /><feComposite
     operator="in"
     in="result6"
     in2="result7"
     id="feComposite60" /></filter><filter
   inkscape:label="Evanescent"
   inkscape:menu="Blurs"
   inkscape:menu-tooltip="Blur the contents of objects, preserving the outline and adding progressive transparency at edges"
   style="color-interpolation-filters:sRGB;"
   id="filter61"
   x="-0.55466496"
   y="-0.55832517"
   width="2.1093299"
   height="2.1166503"><feGaussianBlur
     result="result6"
     stdDeviation="3"
     in="SourceGraphic"
     id="feGaussianBlur61" /><feColorMatrix
     values="1 0 0 0 0 0 1 0 0 0 0 0 1 0 0 0 0 0 1 0 "
     result="result7"
     in="SourceGraphic"
     id="feColorMatrix61" /><feComposite
     operator="in"
     in="result6"
     in2="result7"
     id="feComposite61" /></filter><filter
   inkscape:label="Evanescent"
   inkscape:menu="Blurs"
   inkscape:menu-tooltip="Blur the contents of objects, preserving the outline and adding progressive transparency at edges"
   style="color-interpolation-filters:sRGB;"
   id="filter62"
   x="-0.3901681"
   y="-0.35410778"
   width="1.7803362"
   height="1.7082156"><feGaussianBlur
     result="result6"
     stdDeviation="3"
     in="SourceGraphic"
     id="feGaussianBlur62" /><feColorMatrix
     values="1 0 0 0 0 0 1 0 0 0 0 0 1 0 0 0 0 0 1 0 "
     result="result7"
     in="SourceGraphic"
     id="feColorMatrix62" /><feComposite
     operator="in"
     in="result6"
     in2="result7"
     id="feComposite62" /></filter><filter
   inkscape:label="Evanescent"
   inkscape:menu="Blurs"
   inkscape:menu-tooltip="Blur the contents of objects, preserving the outline and adding progressive transparency at edges"
   style="color-interpolation-filters:sRGB;"
   id="filter63"
   x="-1.413423"
   y="-1.0957064"
   width="3.8268459"
   height="3.1914127"><feGaussianBlur
     result="result6"
     stdDeviation="3"
     in="SourceGraphic"
     id="feGaussianBlur63" /><feColorMatrix
     values="1 0 0 0 0 0 1 0 0 0 0 0 1 0 0 0 0 0 1 0 "
     result="result7"
     in="SourceGraphic"
     id="feColorMatrix63" /><feComposite
     operator="in"
     in="result6"
     in2="result7"
     id="feComposite63" /></filter><filter
   inkscape:label="Evanescent"
   inkscape:menu="Blurs"
   inkscape:menu-tooltip="Blur the contents of objects, preserving the outline and adding progressive transparency at edges"
   style="color-interpolation-filters:sRGB"
   id="filter57-4"
   x="-0.4517533"
   y="-0.47006754"
   width="1.9035066"
   height="1.9401351"><feGaussianBlur
     result="result6"
     stdDeviation="3"
     in="SourceGraphic"
     id="feGaussianBlur57-8" /><feColorMatrix
     values="1 0 0 0 0 0 1 0 0 0 0 0 1 0 0 0 0 0 1 0 "
     result="result7"
     in="SourceGraphic"
     id="feColorMatrix57-8" /><feComposite
     operator="in"
     in="result6"
     in2="result7"
     id="feComposite57-2" /></filter><filter
   inkscape:label="Evanescent"
   inkscape:menu="Blurs"
   inkscape:menu-tooltip="Blur the contents of objects, preserving the outline and adding progressive transparency at edges"
   style="color-interpolation-filters:sRGB"
   id="filter63-1"
   x="-1.413423"
   y="-1.0957064"
   width="3.8268459"
   height="3.1914127"><feGaussianBlur
     result="result6"
     stdDeviation="3"
     in="SourceGraphic"
     id="feGaussianBlur63-1" /><feColorMatrix
     values="1 0 0 0 0 0 1 0 0 0 0 0 1 0 0 0 0 0 1 0 "
     result="result7"
     in="SourceGraphic"
     id="feColorMatrix63-5" /><feComposite
     operator="in"
     in="result6"
     in2="result7"
     id="feComposite63-2" /></filter><filter
   inkscape:label="Evanescent"
   inkscape:menu="Blurs"
   inkscape:menu-tooltip="Blur the contents of objects, preserving the outline and adding progressive transparency at edges"
   style="color-interpolation-filters:sRGB"
   id="filter63-3"
   x="-1.413423"
   y="-1.0957064"
   width="3.8268459"
   height="3.1914127"><feGaussianBlur
     result="result6"
     stdDeviation="3"
     in="SourceGraphic"
     id="feGaussianBlur63-2" /><feColorMatrix
     values="1 0 0 0 0 0 1 0 0 0 0 0 1 0 0 0 0 0 1 0 "
     result="result7"
     in="SourceGraphic"
     id="feColorMatrix63-2" /><feComposite
     operator="in"
     in="result6"
     in2="result7"
     id="feComposite63-1" /></filter><filter
   inkscape:label="Evanescent"
   inkscape:menu="Blurs"
   inkscape:menu-tooltip="Blur the contents of objects, preserving the outline and adding progressive transparency at edges"
   style="color-interpolation-filters:sRGB"
   id="filter60-1"
   x="-0.50654316"
   y="-0.48543977"
   width="2.0130863"
   height="1.9708795"><feGaussianBlur
     result="result6"
     stdDeviation="3"
     in="SourceGraphic"
     id="feGaussianBlur60-8" /><feColorMatrix
     values="1 0 0 0 0 0 1 0 0 0 0 0 1 0 0 0 0 0 1 0 "
     result="result7"
     in="SourceGraphic"
     id="feColorMatrix60-9" /><feComposite
     operator="in"
     in="result6"
     in2="result7"
     id="feComposite60-2" /></filter><filter
   inkscape:label="Evanescent"
   inkscape:menu="Blurs"
   inkscape:menu-tooltip="Blur the contents of objects, preserving the outline and adding progressive transparency at edges"
   style="color-interpolation-filters:sRGB"
   id="filter59-1"
   x="-0.83795795"
   y="-0.67489161"
   width="2.6759159"
   height="2.3497832"><feGaussianBlur
     result="result6"
     stdDeviation="3"
     in="SourceGraphic"
     id="feGaussianBlur59-2" /><feColorMatrix
     values="1 0 0 0 0 0 1 0 0 0 0 0 1 0 0 0 0 0 1 0 "
     result="result7"
     in="SourceGraphic"
     id="feColorMatrix59-3" /><feComposite
     operator="in"
     in="result6"
     in2="result7"
     id="feComposite59-3" /></filter><filter
   inkscape:label="Dark Glass"
   inkscape:menu="Bevels"
   inkscape:menu-tooltip="Illuminated glass effect with light coming from beneath"
   height="1.0222318"
   width="1.0397187"
   y="-0.011210328"
   x="-0.019874364"
   style="color-interpolation-filters:sRGB;"
   id="filter20"><feBlend
     in2="SourceGraphic"
     result="result1"
     mode="screen"
     id="feBlend17" /><feGaussianBlur
     stdDeviation="2"
     result="result6"
     id="feGaussianBlur17" /><feComposite
     operator="xor"
     in="result6"
     in2="result1"
     result="result7"
     id="feComposite17" /><feComposite
     result="result4"
     in="result7"
     operator="xor"
     in2="result7"
     id="feComposite18" /><feGaussianBlur
     result="result3"
     stdDeviation="3"
     in="result4"
     id="feGaussianBlur18" /><feSpecularLighting
     result="result5"
     specularExponent="55"
     specularConstant="1.5"
     surfaceScale="6"
     in="result3"
     id="feSpecularLighting18"><fePointLight
       z="20000"
       y="-8000"
       x="-5000"
       id="fePointLight18" /></feSpecularLighting><feComposite
     in="result3"
     k3="1"
     k2="1.5"
     operator="arithmetic"
     in2="SourceGraphic"
     result="result92"
     id="feComposite19" /><feComposite
     in="result5"
     operator="atop"
     in2="result92"
     result="result93"
     id="feComposite20" /><feBlend
     mode="multiply"
     in2="result93"
     id="feBlend20" /></filter><linearGradient
   inkscape:collect="always"
   xlink:href="#linearGradient43"
   id="linearGradient44"
   x1="763.67102"
   y1="1014.3302"
   x2="763.67102"
   y2="407.27444"
   gradientUnits="userSpaceOnUse"
   gradientTransform="matrix(0.98829158,-1.2401872e-8,0,0.98829164,-1584.4138,-103.39357)" /><linearGradient
   inkscape:collect="always"
   xlink:href="#linearGradient46"
   id="linearGradient48"
   x1="763.6709"
   y1="1014.3301"
   x2="763.6709"
   y2="407.27448"
   gradientUnits="userSpaceOnUse"
   gradientTransform="matrix(0.98829158,-1.2401872e-8,0,0.98829164,-1584.4138,-103.39357)" /></defs>
 <g
   id="Layer_x0020_1"
   inkscape:label="Layer 1">
  <metadata
   id="CorelCorpID_0Corel-Layer" />
  <path
   class="fil0"
   d="m 1004.4511,1797.9705 c 1.5156,1.0162 3.0893,1.9162 4.7083,2.7084 l 0.3425,0.1701 0.045,0.019 c 5.051,2.4113 10.4073,3.6578 15.7423,3.8107 h 0.1052 l 0.6545,0.013 h 0.4176 0.4178 l 0.6544,-0.013 h 0.1052 c 5.3349,-0.1529 10.6913,-1.3994 15.7421,-3.8107 l 0.045,-0.019 0.3424,-0.1701 c 1.619,-0.7922 3.1928,-1.6922 4.7084,-2.7084 131.8003,-85.3097 291.9087,-139.2536 454.6967,-159.1702 163.7151,-20.0266 329.5297,-5.6408 471.3535,45.8574 l -0.022,0.071 c 20.8446,7.5718 43.7581,-3.5416 51.1751,-24.8255 1.6641,-4.775 2.4025,-9.6558 2.3165,-14.4418 V 421.41619 c 0,-20.22463 -14.3816,-37.01746 -33.2671,-40.31365 -19.809,-5.21439 -38.2123,-9.7291 -55.2162,-13.52685 -10.7302,-2.40051 -21.2968,-4.65464 -31.6998,-6.75804 v 83.42171 1043.20584 c 0.011,0.5447 0.011,1.0895 0,1.6363 v 52.1868 l -39.4179,-12.179 c -5.0206,0.083 -10.1403,-0.7967 -15.1093,-2.7644 l 0.047,-0.1248 c -9.9702,-3.942 -20.0824,-7.6515 -30.3175,-11.1371 l -18.5367,-5.7268 c -115.2743,-35.6244 -240.706,-42.0166 -359.7993,-26.1559 -117.9288,15.7078 -235.1574,53.8769 -338.5089,114.2646 l -0.211,-0.1787 c -18.6292,10.8916 -36.7655,22.4872 -54.329,34.7763 l -0.3316,0.2713 -0.2497,0.2024 -0.069,0.052 -0.3294,0.2563 -0.079,0.065 -0.3338,0.2541 -0.452,0.3379 -0.1315,0.095 v 0 l -0.1549,0.112 -0.5231,0.3661 -0.3166,0.2195 -0.032,0.026 -0.3487,0.2346 -0.047,0.032 -0.2992,0.1938 v 0 l -0.3532,0.226 -0.095,0.056 -0.4651,0.2907 -0.4887,0.2928 -0.024,0.013 -0.095,0.059 -0.093,0.054 -0.605,0.3444 -0.2821,0.1573 -0.6652,0.3551 -0.06,0.032 -0.033,0.022 -0.7534,0.3746 -0.082,0.047 -0.1119,0.052 -0.6436,0.31 -0.2692,0.1183 -0.03,0.019 -0.3832,0.1721 -0.1227,0.05 -0.3854,0.168 -0.6544,0.2777 -0.079,0.03 -0.067,0.024 -0.814,0.3187 -0.079,0.026 -0.8611,0.3122 h -0.019 l -0.063,0.024 -0.8073,0.2691 -0.067,0.022 -0.083,0.021 -0.8181,0.2498 -0.081,0.024 -0.8117,0.224 -0.1034,0.031 -0.081,0.017 -0.831,0.2088 -0.052,0.013 -0.06,0.013 -0.8806,0.198 -0.076,0.013 -0.8763,0.1702 -0.063,0.015 -0.1052,0.015 -0.8505,0.1421 -0.036,0.011 -0.074,0.013 -0.9042,0.1291 h -0.043 l -0.9537,0.1142 h -0.03 l -0.1185,0.012 -0.874,0.079 h -0.02 -0.019 l -0.8396,0.052 -0.1659,0.011 h -0.057 l -0.8978,0.037 h -0.071 -0.1356 l -0.8957,0.013 v 0 l -0.8955,-0.013 h -0.1357 -0.071 l -0.8977,-0.037 h -0.057 l -0.1659,-0.011 -0.8396,-0.052 h -0.019 -0.019 l -0.874,-0.079 -0.1185,-0.012 h -0.03 l -0.9538,-0.1142 h -0.043 l -0.9042,-0.1291 -0.073,-0.013 -0.037,-0.011 v 0 l -0.8461,-0.1421 -0.1052,-0.015 -0.063,-0.015 -0.8763,-0.1702 -0.076,-0.013 -0.8806,-0.198 -0.06,-0.013 -0.052,-0.013 -0.831,-0.2088 -0.081,-0.017 -0.1034,-0.031 -0.8116,-0.224 -0.081,-0.024 -0.8181,-0.2498 -0.083,-0.021 -0.067,-0.022 -0.8074,-0.2691 -0.063,-0.024 h -0.019 l -0.8914,-0.3207 -0.032,-0.015 -0.8311,-0.3209 -0.067,-0.024 -0.079,-0.03 -0.6545,-0.2776 -0.3853,-0.168 -0.1228,-0.05 -0.3832,-0.1722 -0.03,-0.019 -0.2692,-0.1185 -0.6437,-0.3099 -0.112,-0.052 -0.081,-0.047 -0.7535,-0.3746 -0.032,-0.022 -0.059,-0.032 -0.6652,-0.3551 -0.2821,-0.1571 -0.605,-0.3446 -0.093,-0.054 -0.095,-0.06 -0.024,-0.012 -0.4888,-0.2928 -0.465,-0.2906 -0.095,-0.056 -0.3553,-0.2303 -0.2993,-0.1937 -0.048,-0.032 -0.3488,-0.2346 -0.031,-0.026 -0.3164,-0.2195 -0.5232,-0.366 -0.1593,-0.1141 -0.1314,-0.095 -0.4521,-0.338 -0.3336,-0.254 -0.079,-0.065 -0.3294,-0.2563 -0.069,-0.052 -0.2498,-0.2023 -0.3315,-0.2712 c -17.59371,-12.3126 -35.75795,-23.9191 -54.41752,-34.828 l -0.27339,0.2304 C 843.27726,1537.0511 726.0507,1498.882 608.12214,1483.1741 489.03076,1467.3135 363.59929,1473.7055 248.32105,1509.33 l -16.69166,5.1585 c -10.81199,3.6491 -21.48839,7.548 -32.00765,11.7054 l 0.0474,0.1249 c -5.01848,1.9806 -10.18766,2.8676 -15.25351,2.7599 l -39.4265,12.1835 V 360.86683 c -9.52025,1.91825 -19.06844,3.93556 -28.64895,6.06265 -17.998462,3.98721 -37.376926,8.71074 -58.12471,14.17272 -18.885417,3.30044 -33.260656,20.09541 -33.260656,40.31366 V 1645.4611 c -0.08608,4.786 0.652338,9.6666 2.316556,14.4418 7.416839,21.2839 30.330489,32.3972 51.175072,24.8255 l -0.0215,-0.071 c 141.824198,-51.4982 307.637678,-65.8839 471.353488,-45.8573 162.7873,19.9166 322.89649,73.8604 454.69677,159.1702 z"
   id="path1"
   style="fill:#ff0000;fill-opacity:1;stroke-width:1.82282" />
  <path
   class="fil1"
   d="m 236.84692,1470.1775 -51.66376,15.9682 V 321.17963 l 30.13015,-7.86895 C 349.5528,278.25455 488.9738,266.4801 626.76744,282.94155 c 133.8519,15.99841 262.98424,58.40889 379.79546,127.11958 l 20.0588,11.80451 V 1596.9665 l -59.95681,-35.0345 c -107.80997,-62.9904 -230.15731,-102.9274 -353.22624,-119.3175 0,0 -255.91069,-9.7302 -376.59173,27.563 z"
   id="path2"
   sodipodi:nodetypes="ccccccccccc"
   style="stroke-width:1.82282" />
  <path
   class="fil1"
   d="m 1046.3757,410.06549 c 116.8114,-68.7107 245.9446,-111.12133 379.7955,-127.11959 137.794,-16.4613 277.215,-4.68692 411.4542,30.36913 l 30.13,7.86895 V 1486.15 l -51.6637,-15.9683 c -120.6802,-37.2929 -251.9198,-44.1652 -376.5928,-27.5639 -123.0701,16.3902 -245.4161,56.3271 -353.2262,119.3175 l -59.9569,35.0346 V 421.8689 l 20.0588,-11.8045 z"
   id="path3"
   sodipodi:nodetypes="ccsccccccccc"
   style="stroke-width:1.82282" />
  <g
   id="_311538504">
   
   
  </g>
 <g
   id="g2"
   transform="matrix(0.66299929,0,0,0.66582142,1535.5472,315.04051)"><ellipse
     style="display:inline;opacity:1;mix-blend-mode:color-burn;fill:#000000;fill-opacity:1;fill-rule:nonzero;stroke:#ffffff;stroke-width:10;stroke-linejoin:bevel;stroke-dasharray:none;stroke-dashoffset:0;stroke-opacity:1;paint-order:markers fill stroke"
     id="path45"
     cx="-762.87689"
     cy="922.90265"
     rx="630.0827"
     ry="627.38239"
     inkscape:transform-center-x="337.80078"
     inkscape:transform-center-y="-314.61837" /><text
     xml:space="preserve"
     style="font-weight:bold;font-size:1218.63px;font-family:Arial;-inkscape-font-specification:'Arial, Bold';text-align:start;writing-mode:lr-tb;direction:ltr;text-anchor:start;display:inline;opacity:0.99373;fill:url(#linearGradient48);fill-opacity:1;fill-rule:nonzero;stroke:url(#linearGradient44);stroke-width:11.759;stroke-linecap:round;stroke-linejoin:round;stroke-dasharray:141.107, 141.107;stroke-dashoffset:0;stroke-opacity:1;paint-order:markers fill stroke"
     x="-1203.3602"
     y="1035.2401"
     id="text43"
     transform="matrix(0.87521983,-0.23440956,0.01841431,1.1376382,0,0)"
     inkscape:transform-center-x="56.412073"
     inkscape:transform-center-y="-211.79748"><tspan
       sodipodi:role="line"
       id="tspan43"
       x="-1203.3602"
       y="1035.2401"
       style="fill:url(#linearGradient48);stroke:url(#linearGradient44);stroke-width:11.759;stroke-linecap:round;stroke-linejoin:round;stroke-dasharray:141.107, 141.107;stroke-dashoffset:0">k</tspan></text></g></g>
 <rect
   class="fil2"
   width="2048"
   height="2048"
   id="rect3" />
</svg>
